<svg width="34" height="33" viewBox="0 0 34 33" fill="none" xmlns="http://www.w3.org/2000/svg">
<g clip-path="url(#clip0_245_110)">
<path d="M32.1768 5.60588C31.7783 5.14173 31.2794 4.76843 30.7155 4.5125C30.1517 4.25656 29.5366 4.12426 28.9142 4.125H6.0095L5.95 3.64238C5.82824 2.6392 5.33146 1.71426 4.55386 1.04291C3.77626 0.371557 2.77189 0.000469966 1.73117 0L1.41667 0C1.04094 0 0.680609 0.144866 0.414932 0.402728C0.149256 0.660591 0 1.01033 0 1.375C0 1.73967 0.149256 2.08941 0.414932 2.34727C0.680609 2.60513 1.04094 2.75 1.41667 2.75H1.73117C2.07816 2.75004 2.41306 2.87369 2.67236 3.09748C2.93166 3.32128 3.09732 3.62965 3.13792 3.96413L5.08725 20.0516C5.28962 21.7247 6.11784 23.2675 7.4147 24.387C8.71156 25.5066 10.3868 26.125 12.1224 26.125H26.9167C27.2924 26.125 27.6527 25.9801 27.9184 25.7223C28.1841 25.4644 28.3333 25.1147 28.3333 24.75C28.3333 24.3853 28.1841 24.0356 27.9184 23.7777C27.6527 23.5199 27.2924 23.375 26.9167 23.375H12.1224C11.2456 23.3726 10.391 23.107 9.67574 22.6147C8.96052 22.1224 8.41969 21.4274 8.12742 20.625H25.0141C26.6748 20.6251 28.2828 20.0588 29.5571 19.0251C30.8314 17.9914 31.6909 16.556 31.9855 14.9696L33.0976 8.98288C33.2086 8.38889 33.1836 7.77847 33.0245 7.19488C32.8654 6.61129 32.576 6.06881 32.1768 5.60588ZM30.3167 8.49475L29.2032 14.4815C29.0263 15.4344 28.5097 16.2965 27.7438 16.9169C26.9779 17.5373 26.0116 17.8765 25.0141 17.875H7.67692L6.34383 6.875H28.9142C29.1223 6.87379 29.3281 6.9171 29.517 7.00185C29.7059 7.0866 29.8733 7.2107 30.0072 7.36534C30.1411 7.51997 30.2382 7.70134 30.2917 7.89654C30.3452 8.09174 30.3537 8.29599 30.3167 8.49475Z" fill="white"/>
<path d="M9.91659 33C11.4814 33 12.7499 31.7688 12.7499 30.25C12.7499 28.7312 11.4814 27.5 9.91659 27.5C8.35178 27.5 7.08325 28.7312 7.08325 30.25C7.08325 31.7688 8.35178 33 9.91659 33Z" fill="white"/>
<path d="M24.0833 33C25.6481 33 26.9167 31.7688 26.9167 30.25C26.9167 28.7312 25.6481 27.5 24.0833 27.5C22.5185 27.5 21.25 28.7312 21.25 30.25C21.25 31.7688 22.5185 33 24.0833 33Z" fill="white"/>
</g>
<defs>
<clipPath id="clip0_245_110">
<rect width="34" height="33" fill="white"/>
</clipPath>
</defs>
</svg>
