<svg width="34" height="33" viewBox="0 0 34 33" fill="none" xmlns="http://www.w3.org/2000/svg">
<g clip-path="url(#clip0_245_117)">
<path d="M24.7914 2.63574C23.1962 2.65983 21.6358 3.09204 20.2677 3.88874C18.8996 4.68544 17.7724 5.81841 16.9998 7.17324C16.2272 5.81841 15.0999 4.68544 13.7319 3.88874C12.3638 3.09204 10.8033 2.65983 9.20811 2.63574C6.66511 2.74298 4.2692 3.82272 2.5438 5.63906C0.818412 7.45541 -0.0962018 9.86071 -0.000221849 12.3295C-0.000221849 18.5816 6.77994 25.4099 12.4664 30.0395C13.7361 31.075 15.3414 31.6428 16.9998 31.6428C18.6582 31.6428 20.2635 31.075 21.5331 30.0395C27.2196 25.4099 33.9998 18.5816 33.9998 12.3295C34.0958 9.86071 33.1811 7.45541 31.4558 5.63906C29.7304 3.82272 27.3344 2.74298 24.7914 2.63574ZM19.7127 27.9357C18.9533 28.5564 17.9925 28.8967 16.9998 28.8967C16.007 28.8967 15.0462 28.5564 14.2869 27.9357C7.00803 22.0081 2.83311 16.3211 2.83311 12.3295C2.73627 10.5897 3.35213 8.88337 4.54638 7.58258C5.74062 6.28179 7.41636 5.4921 9.20811 5.38574C10.9999 5.4921 12.6756 6.28179 13.8698 7.58258C15.0641 8.88337 15.68 10.5897 15.5831 12.3295C15.5831 12.6942 15.7324 13.0439 15.998 13.3018C16.2637 13.5596 16.6241 13.7045 16.9998 13.7045C17.3755 13.7045 17.7358 13.5596 18.0015 13.3018C18.2672 13.0439 18.4164 12.6942 18.4164 12.3295C18.3196 10.5897 18.9355 8.88337 20.1297 7.58258C21.324 6.28179 22.9997 5.4921 24.7914 5.38574C26.5832 5.4921 28.2589 6.28179 29.4532 7.58258C30.6474 8.88337 31.2633 10.5897 31.1664 12.3295C31.1664 16.3211 26.9915 22.0081 19.7127 27.9302V27.9357Z" fill="white"/>
</g>
<defs>
<clipPath id="clip0_245_117">
<rect width="34" height="33" fill="white"/>
</clipPath>
</defs>
</svg>
