<svg width="34" height="33" viewBox="0 0 34 33" fill="none" xmlns="http://www.w3.org/2000/svg">
<g clip-path="url(#clip0_245_106)">
<path d="M29.75 33H26.9167V26.0659C26.9155 24.9879 26.4738 23.9543 25.6885 23.1921C24.9031 22.4298 23.8383 22.0011 22.7276 22H11.2724C10.1617 22.0011 9.09689 22.4298 8.31153 23.1921C7.52617 23.9543 7.08446 24.9879 7.08333 26.0659V33H4.25V26.0659C4.25225 24.2589 4.99283 22.5265 6.3093 21.2487C7.62577 19.971 9.41065 19.2522 11.2724 19.25H22.7276C24.5894 19.2522 26.3742 19.971 27.6907 21.2487C29.0072 22.5265 29.7477 24.2589 29.75 26.0659V33Z" fill="white"/>
<path d="M17 16.5C15.3189 16.5 13.6755 16.0162 12.2777 15.1096C10.8798 14.2031 9.79037 12.9146 9.14703 11.4071C8.50368 9.89965 8.33535 8.24085 8.66333 6.64051C8.9913 5.04017 9.80085 3.57016 10.9896 2.41637C12.1783 1.26259 13.6929 0.476853 15.3417 0.158525C16.9906 -0.159803 18.6996 0.00357461 20.2528 0.627998C21.806 1.25242 23.1335 2.30984 24.0675 3.66655C25.0015 5.02325 25.5 6.61831 25.5 8.25C25.4978 10.4374 24.6015 12.5345 23.0079 14.0812C21.4144 15.6279 19.2537 16.4978 17 16.5ZM17 2.75C15.8792 2.75 14.7837 3.07257 13.8518 3.67692C12.9199 4.28127 12.1936 5.14025 11.7647 6.14525C11.3358 7.15024 11.2236 8.25611 11.4422 9.323C11.6609 10.3899 12.2006 11.3699 12.9931 12.1391C13.7856 12.9083 14.7953 13.4321 15.8945 13.6443C16.9937 13.8565 18.1331 13.7476 19.1685 13.3313C20.204 12.9151 21.089 12.2101 21.7117 11.3056C22.3343 10.4012 22.6667 9.3378 22.6667 8.25C22.6667 6.79131 22.0696 5.39237 21.0069 4.36092C19.9442 3.32947 18.5029 2.75 17 2.75Z" fill="white"/>
</g>
<defs>
<clipPath id="clip0_245_106">
<rect width="34" height="33" fill="white"/>
</clipPath>
</defs>
</svg>
